<?xml version="1.0" encoding="UTF-8"?>
<svg id="Layer_2" data-name="Layer 2" xmlns="http://www.w3.org/2000/svg" viewBox="0 0 274.62 255.12">
  <defs>
    <style>
      .cls-1 {
        fill: #fff;
      }

      .cls-2 {
        fill: #262317;
      }

      .cls-3 {
        fill: #736d42;
      }
    </style>
  </defs>
  <g id="Ebene_1" data-name="Ebene 1">
    <path class="cls-2" d="M274.62,49.67l-14.8-6.53c-8.55-3.78-16.59-7.02-24.51-9.88l4.04-16.38-7.43-2.29C200.53,4.91,168.7,0,137.32,0s-63.57,4.96-95.13,14.75l-7.42,2.3,4.06,16.37c-7.76,2.82-15.63,6-24.03,9.71L0,49.67l14,8.12c6.32,3.66,12.56,7.66,18.56,11.88-2.36,8.46-4.49,16.77-6.5,25.38l-3.73,16,15.05-6.59c3.2-1.4,6.32-2.72,9.38-3.96v64.22c0,3.33.18,6.62.54,9.85,4.9,45.29,43.26,80.55,89.87,80.55,38.62,0,71.58-24.22,84.53-58.3,3.8-9.97,5.87-20.8,5.87-32.1l.15-64.29c3.1,1.26,6.26,2.59,9.52,4.02l15.05,6.59-3.73-16c-2-8.6-4.13-16.91-6.5-25.38,6-4.22,12.24-8.22,18.56-11.88l14-8.12Z"/>
    <g>
      <path class="cls-3" d="M124.69,108.76l-1.91,1.81c-.6.57-.6,1.51-.01,2.09l1.85,1.79c.76.74,1.93.89,2.86.37.79-.44,1.61-.89,1.7-.89h16.28c.09,0,.91.44,1.7.89.93.52,2.09.37,2.86-.37l1.85-1.79c.59-.57.58-1.52-.01-2.09l-1.91-1.81c-.77-.73-1.92-.87-2.84-.35-.79.45-1.61.89-1.7.89h-3.96c-.44,0-.8-.29-.83-.66l-.96-12.37c-.05-.68.25-1.34.82-1.82l.59-.49c.41-.34.41-.9,0-1.24l-3.15-2.59c-.32-.27-.86-.27-1.18,0l-3.16,2.6c-.41.34-.41.89,0,1.23l.59.49c.57.48.87,1.14.82,1.82l-.96,12.37c-.03.37-.39.66-.83.66h-3.96c-.09,0-.91-.45-1.7-.89-.92-.52-2.07-.38-2.84.35Z"/>
      <g>
        <path class="cls-1" d="M136.34,124.88c-1.58.07-3.12.27-4.62.63l.25-7.86c0-.84.59-1.51,1.3-1.51h2.14c.5,0,.9.47.9,1.06l.03,7.68Z"/>
        <path class="cls-1" d="M142.91,125.51c-1.53-.36-3.12-.58-4.75-.63l.04-7.68c0-.59.41-1.06.9-1.06h2.25c.71,0,1.29.68,1.3,1.51l.26,7.86Z"/>
        <path class="cls-1" d="M145.58,205.66c.03,2.42-.27,4.8-.87,7.01l-6.22,13.94c-.18.62-.58.93-.98.93s-.8-.3-.98-.89l-6.36-13.8c-.69-2.31-1.03-4.85-1-7.41l.4-12.47c2.3.19,4.66.28,7.06.3l.05,10.44c.02.98,1.12.98,1.15,0l.05-10.44c2.47-.02,4.92-.11,7.28-.31l.43,12.71Z"/>
      </g>
    </g>
    <g>
      <g>
        <path class="cls-3" d="M158.82,143.97c-6.07-1.9-13.58-2.92-21.51-2.92s-15.45,1.02-21.52,2.92c1.88-9.81,10.79-17.26,21.51-17.26s19.64,7.44,21.52,17.26Z"/>
        <path class="cls-3" d="M143.85,147.82h-13.07c2.16-.07,4.34-.09,6.53-.09s4.39.03,6.54.09Z"/>
        <path class="cls-3" d="M137.3,149.59c-2.16,0-4.27.03-6.34.09h12.68c-2.07-.07-4.18-.09-6.35-.09Z"/>
      </g>
      <g>
        <path class="cls-3" d="M111.57,155.07h0c.33-.04.67-.07,1.01-.12-.34.04-.68.08-1.01.12ZM137.3,149.59c-2.16,0-4.27.03-6.34.09h12.68c-2.07-.07-4.18-.09-6.35-.09ZM162.03,154.95c.34.05.68.08,1.01.13h0c-.33-.05-.67-.09-1.01-.13ZM137.3,147.73c-2.19,0-4.38.03-6.53.09h13.07c-2.16-.07-4.35-.09-6.54-.09ZM164.14,177.71c-7.64.9-16.96,1.38-26.84,1.38s-19.2-.48-26.83-1.38l-.3,6.09c0,1.87,1.17,3.55,2.93,4.16l1.31.43c6,1.87,14.05,3.01,22.9,3.01s16.88-1.14,22.9-3.01l1.29-.43c1.77-.6,2.94-2.3,2.94-4.16l-.3-6.09Z"/>
        <path class="cls-1" d="M164.55,157.16v13.43c-.24.03-.49.06-.74.08-2.49.27-5.25.49-8.2.68.16-2.16.23-4.36.23-6.62,0-2.94-.13-5.81-.39-8.59.47.04.94.08,1.39.12,2.28.2,4.38.44,6.3.7.32.04.63.08.94.13.16.02.32.05.47.07Z"/>
        <path class="cls-1" d="M118.79,164.73c0,2.26.07,4.47.23,6.63-2.98-.19-5.73-.42-8.2-.68-.25-.03-.5-.06-.74-.08v-13.44c.16-.02.32-.05.47-.07.31-.05.62-.09.94-.13,1.9-.26,4.01-.49,6.29-.7.46-.04.92-.08,1.39-.11-.25,2.77-.38,5.64-.38,8.58Z"/>
        <path class="cls-3" d="M162.76,149.24v.07c-.83-.12-1.67-.23-2.54-.33-.39-.06-.78-.09-1.17-.14-.3-.03-.59-.07-.89-.09-4.45-.47-9.31-.78-14.32-.93-2.16-.07-4.35-.09-6.54-.09s-4.38.03-6.53.09c-5.01.15-9.87.46-14.32.93-.3.03-.59.07-.89.09-.4.05-.79.09-1.17.14-.86.1-1.71.2-2.54.33v-.07c0-1.11.68-2.14,1.72-2.54l.04-.02.07-.03c.29-.11.59-.22.88-.32.31-.12.62-.23.95-.33,5.81-1.93,13.44-3.09,21.8-3.09s15.98,1.16,21.79,3.09c.33.1.64.21.95.33.31.1.6.21.89.33l.07.03.04.02c1.04.4,1.72,1.42,1.72,2.54Z"/>
      </g>
      <path class="cls-3" d="M168.55,152.15c-1.2-.24-2.47-.46-3.82-.68-.31-.05-.62-.09-.94-.15-.31-.05-.62-.08-.94-.13-1.28-.19-2.62-.35-4-.5-4.6-.51-9.73-.86-15.2-1.01h-12.68c-5.46.15-10.59.5-15.2,1.01-1.38.15-2.72.32-4,.5-.32.05-.63.08-.94.13-.32.06-.63.1-.94.15-1.35.21-2.62.44-3.82.68-.33.07-.58.37-.58.72v21.67c0,.36.26.66.61.72.84.13,1.71.26,2.62.37.3.05.6.08.92.12.31.04.61.07.92.11,7.35.86,16.64,1.38,26.74,1.38s19.4-.52,26.75-1.38c.32-.04.62-.07.92-.11.32-.04.62-.07.92-.12.91-.11,1.78-.24,2.62-.37.35-.06.61-.35.61-.72v-21.67c0-.34-.24-.64-.58-.72ZM166.41,171.59c0,.37-.26.68-.61.72-.02,0-.04,0-.06,0-.3.04-.61.07-.92.1-.31.04-.61.07-.93.1-.63.07-1.29.13-1.96.2-.53.05-1.08.09-1.63.14-.15,0-.3.03-.45.04-.65.06-1.31.1-1.99.16-.42.03-.84.06-1.26.08-.75.05-1.52.09-2.3.14-.41.02-.82.05-1.24.07-1.04.06-2.1.1-3.19.15-.58.02-1.16.05-1.76.07-.42,0-.85.03-1.28.04-.43,0-.85.03-1.29.04-2.66.07-5.43.1-8.24.1-2.43,0-4.82-.03-7.15-.08-.69,0-1.38-.03-2.06-.05-2.7-.07-5.31-.19-7.77-.33-3.08-.17-5.94-.39-8.51-.65-.37-.04-.73-.07-1.09-.11-.32-.03-.62-.06-.93-.1-.32-.03-.62-.07-.92-.1-.02,0-.04,0-.06,0-.35-.05-.61-.35-.61-.72v-15.4c0-.36.25-.67.59-.72.29-.05.59-.09.89-.14.31-.05.62-.09.94-.13.31-.05.62-.09.94-.13h0c.33-.05.67-.09,1.01-.13.02,0,.04,0,.06,0,.48-.06.98-.12,1.48-.18.68-.07,1.38-.15,2.09-.21.46-.05.93-.09,1.4-.13,2.72-.24,5.67-.44,8.76-.57,2.55-.12,5.2-.2,7.94-.23.69,0,1.38,0,2.07,0h.92c5.05,0,9.89.14,14.35.41,1.85.11,3.64.24,5.35.4.47.04.95.08,1.4.13.72.07,1.41.14,2.09.21.5.06.99.12,1.48.18.02,0,.04,0,.06,0,.34.04.68.08,1.01.12h0c.32.05.63.09.94.14.32.04.63.08.94.13.3.05.59.09.89.14.34.05.59.35.59.72v15.4Z"/>
    </g>
    <g>
      <g>
        <polygon class="cls-1" points="82.76 108.88 81.19 112.07 77.67 112.58 80.22 115.06 79.61 118.57 82.76 116.91 85.91 118.57 85.31 115.06 87.85 112.58 84.34 112.07 82.76 108.88"/>
        <polygon class="cls-1" points="76.56 130.56 74.98 133.75 71.46 134.26 74.01 136.75 73.41 140.25 76.56 138.6 79.7 140.25 79.1 136.75 81.65 134.26 78.13 133.75 76.56 130.56"/>
        <polygon class="cls-1" points="99.54 92.59 97.96 95.78 94.44 96.29 96.99 98.77 96.39 102.28 99.54 100.62 102.68 102.28 102.08 98.77 104.63 96.29 101.11 95.78 99.54 92.59"/>
        <polygon class="cls-1" points="121.24 80.8 119.67 83.98 116.15 84.5 118.7 86.98 118.09 90.48 121.24 88.83 124.39 90.48 123.79 86.98 126.33 84.5 122.81 83.98 121.24 80.8"/>
      </g>
      <g>
        <polygon class="cls-1" points="191.86 108.88 193.43 112.07 196.95 112.58 194.4 115.06 195 118.57 191.86 116.91 188.71 118.57 189.31 115.06 186.76 112.58 190.28 112.07 191.86 108.88"/>
        <polygon class="cls-1" points="198.06 130.56 199.63 133.75 203.15 134.26 200.61 136.75 201.21 140.25 198.06 138.6 194.91 140.25 195.52 136.75 192.97 134.26 196.49 133.75 198.06 130.56"/>
        <polygon class="cls-1" points="175.08 92.59 176.65 95.78 180.17 96.29 177.63 98.77 178.23 102.28 175.08 100.62 171.93 102.28 172.53 98.77 169.99 96.29 173.51 95.78 175.08 92.59"/>
        <polygon class="cls-1" points="153.38 80.8 154.95 83.98 158.47 84.5 155.92 86.98 156.52 90.48 153.38 88.83 150.23 90.48 150.83 86.98 148.28 84.5 151.8 83.98 153.38 80.8"/>
      </g>
    </g>
    <g>
      <g>
        <path class="cls-3" d="M76.72,158.52c-.4-.57-.8-1.15-1.2-1.74-.55.42-1.11.86-1.66,1.32-2.52,2.02-2.82,6.26-.56,8.59.35.39.74.77,1.11,1.14-.02-1.02.08-2.03.12-3.04.08-1.01.19-2.02.31-3.02.01-.07.1-.06.1,0,0,1.01-.01,2.02.02,3.02.07,1,.07,2.01.2,3,.34-.39.67-.78,1.03-1.16,2.09-2.3,2.32-5.57.53-8.12Z"/>
        <g>
          <g>
            <path class="cls-3" d="M97.9,221.02l-1.58,3.16c.73.35,1.46.72,2.2,1.05l2.24.96c3.4,1.36,6.92,1.33,9.55.16,2.64-1.12,4.38-3.29,4.86-5.87l.49-2.58c-3.09,1.65-6.45,2.98-10.07,4.03-.12.03-.22-.12-.1-.17,3.39-1.39,6.51-3.04,9.36-4.96-.95-.18-1.88-.42-2.81-.66-2.8-.75-5.62-.62-8.15.16-1.27.41-2.46,1.01-3.49,1.77-1.03.77-1.9,1.75-2.49,2.94Z"/>
            <path class="cls-3" d="M112.1,199.27c-.82-.36-1.66-.68-2.45-1.1l-1.55,3.18c-1.17,2.37-1.38,4.97-.46,7.22.44,1.16,1.18,2.13,2.12,3.01.96.8,2.13,1.49,3.47,1.8.88.25,1.77.43,2.66.6-1.75-2.79-3.12-5.77-4.15-8.66-.03-.1.1-.17.14-.08,1.34,2.73,3.04,5.43,5.1,8.03l.46-2.59c.46-2.61-.09-5.16-1.07-7.15-.99-2.03-2.41-3.55-4.27-4.28Z"/>
          </g>
          <g>
            <path class="cls-3" d="M85.4,211.38l-2.09,2.38c1.09.91,2.16,1.85,3.3,2.7,2.53,1.97,5.55,2.7,8.05,2.39,2.55-.36,4.54-1.72,5.62-3.84l1.07-2.09c-3.04.59-6.29,1-9.6,1.01-.11,0-.16-.15-.05-.17,1.62-.2,3.18-.45,4.73-.8,1.53-.31,3.04-.74,4.49-1.18-.75-.43-1.53-.81-2.25-1.27-2.24-1.31-4.66-1.94-7.05-1.81-2.35.1-4.66.93-6.23,2.7Z"/>
            <path class="cls-3" d="M102.87,195.77c-.68-.49-1.31-1.03-1.95-1.57l-2.07,2.39c-1.54,1.77-2.31,3.99-2.04,6.16.25,2.17,1.55,4.26,3.68,5.53.71.41,1.43.79,2.14,1.19-.77-2.9-1.28-5.71-1.47-8.52,0-.09.13-.12.14-.03.5,2.73,1.33,5.46,2.45,8.21l1.05-2.1c.53-1.06.83-2.17.95-3.25.13-1.1.09-2.18-.1-3.17-.2-.98-.5-1.95-.97-2.73-.44-.84-1.06-1.5-1.79-2.09Z"/>
          </g>
          <g>
            <path class="cls-3" d="M75.97,199.08l-2.31,1.56c.66,1.03,1.42,1.99,2.14,2.99,1.68,2.18,3.99,3.51,6.18,3.81,2.2.31,4.24-.36,5.68-1.89l1.43-1.5c-1.38-.11-2.74-.31-4.15-.52-1.36-.26-2.81-.52-4.2-.9-.09-.02-.09-.17,0-.15,2.8.41,5.59.56,8.27.52l-1.6-1.63c-1.54-1.69-3.51-2.74-5.53-3.2-2.04-.43-4.17-.24-5.9.92Z"/>
            <path class="cls-3" d="M94.56,189.66c-.45-.62-.92-1.23-1.35-1.87l-2.3,1.58c-1.74,1.18-2.84,2.89-3.12,4.81-.15.97-.04,1.94.25,2.92.31.96.84,1.88,1.59,2.67l1.52,1.54c.03-1.32.11-2.62.23-3.88.15-1.29.31-2.51.55-3.75.02-.08.14-.08.13,0-.17,2.45-.15,5.01.13,7.6l1.42-1.51c1.42-1.53,2.11-3.44,2.28-5.26.13-1.8-.24-3.53-1.31-4.87Z"/>
          </g>
          <g>
            <path class="cls-3" d="M70.09,185.03l-2.28.8c.35.98.69,1.96,1.1,2.91.22.54.48,1.05.78,1.52.3.47.65.89,1.01,1.27.72.77,1.55,1.35,2.43,1.72,1.73.76,3.59.69,5.16-.23l1.55-.9c-2.22-.85-4.41-1.9-6.6-3.12-.07-.04-.04-.16.03-.12,1.14.47,2.27.91,3.38,1.3,1.14.38,2.27.73,3.38,1.04l-.93-1.74c-.46-.88-1-1.67-1.69-2.31-.65-.66-1.39-1.21-2.2-1.61-1.6-.81-3.41-1.12-5.13-.52Z"/>
            <path class="cls-3" d="M87.97,181.24l-.4-.96-.35-.97-2.28.81c-1.69.6-3.05,1.81-3.68,3.36-.66,1.54-.63,3.43.25,5.11.3.55.58,1.11.89,1.65.34-1.09.73-2.16,1.12-3.19.4-1.03.86-2.05,1.32-3.02.03-.06.13-.03.11.04-.7,2.03-1.28,4.19-1.68,6.42l1.55-.91c1.56-.92,2.59-2.35,3.15-3.85.27-.75.4-1.51.42-2.27,0-.76-.15-1.49-.43-2.22Z"/>
          </g>
          <g>
            <path class="cls-3" d="M68.02,170.2l-2.04.16.26,2.56c.25,1.91,1.15,3.54,2.4,4.54,1.21,1.01,2.76,1.38,4.24,1.01l1.48-.36c-.82-.61-1.57-1.25-2.35-1.93-.79-.67-1.54-1.38-2.28-2.11-.05-.05,0-.14.06-.09,1.59,1.27,3.28,2.42,4.94,3.45-.13-.54-.23-1.09-.34-1.63-.18-.82-.46-1.58-.84-2.27-.39-.68-.89-1.29-1.44-1.8-1.11-1.01-2.56-1.64-4.09-1.53Z"/>
            <path class="cls-3" d="M83.7,171.02l-.18-1.8-2.04.17c-1.52.12-2.84.83-3.74,1.96-.46.57-.74,1.22-.92,1.95-.19.73-.2,1.51-.03,2.29.11.52.19,1.04.34,1.55.51-.8,1.1-1.59,1.66-2.34.55-.75,1.15-1.48,1.76-2.18.04-.05.11,0,.08.06-.53.76-1.02,1.55-1.49,2.36-.49.81-.95,1.65-1.37,2.51l1.47-.37c1.5-.38,2.65-1.29,3.46-2.4.4-.56.69-1.16.85-1.79.19-.64.25-1.29.14-1.96Z"/>
          </g>
        </g>
      </g>
      <g>
        <path class="cls-3" d="M197.9,158.52c.4-.57.8-1.15,1.2-1.74.55.42,1.11.86,1.66,1.32,2.52,2.02,2.82,6.26.56,8.59-.35.39-.74.77-1.11,1.14.02-1.02-.08-2.03-.12-3.04-.08-1.01-.19-2.02-.31-3.02-.01-.07-.1-.06-.1,0,0,1.01.01,2.02-.02,3.02-.07,1-.07,2.01-.2,3-.34-.39-.67-.78-1.03-1.16-2.09-2.3-2.32-5.57-.53-8.12Z"/>
        <g>
          <g>
            <path class="cls-3" d="M176.72,221.02l1.58,3.16c-.73.35-1.46.72-2.2,1.05l-2.24.96c-3.4,1.36-6.92,1.33-9.55.16-2.64-1.12-4.38-3.29-4.86-5.87l-.49-2.58c3.09,1.65,6.45,2.98,10.07,4.03.12.03.22-.12.1-.17-3.39-1.39-6.51-3.04-9.36-4.96.95-.18,1.88-.42,2.81-.66,2.8-.75,5.62-.62,8.15.16,1.27.41,2.46,1.01,3.49,1.77,1.03.77,1.9,1.75,2.49,2.94Z"/>
            <path class="cls-3" d="M162.52,199.27c.82-.36,1.66-.68,2.45-1.1l1.55,3.18c1.17,2.37,1.38,4.97.46,7.22-.44,1.16-1.18,2.13-2.12,3.01-.96.8-2.13,1.49-3.47,1.8-.88.25-1.77.43-2.66.6,1.75-2.79,3.12-5.77,4.15-8.66.03-.1-.1-.17-.14-.08-1.34,2.73-3.04,5.43-5.1,8.03l-.46-2.59c-.46-2.61.09-5.16,1.07-7.15.99-2.03,2.41-3.55,4.27-4.28Z"/>
          </g>
          <g>
            <path class="cls-3" d="M189.22,211.38l2.09,2.38c-1.09.91-2.16,1.85-3.3,2.7-2.53,1.97-5.55,2.7-8.05,2.39-2.55-.36-4.54-1.72-5.62-3.84l-1.07-2.09c3.04.59,6.29,1,9.6,1.01.11,0,.16-.15.05-.17-1.62-.2-3.18-.45-4.73-.8-1.53-.31-3.04-.74-4.49-1.18.75-.43,1.53-.81,2.25-1.27,2.24-1.31,4.66-1.94,7.05-1.81,2.35.1,4.66.93,6.23,2.7Z"/>
            <path class="cls-3" d="M171.75,195.77c.68-.49,1.31-1.03,1.95-1.57l2.07,2.39c1.54,1.77,2.31,3.99,2.04,6.16-.25,2.17-1.55,4.26-3.68,5.53-.71.41-1.43.79-2.14,1.19.77-2.9,1.28-5.71,1.47-8.52,0-.09-.13-.12-.14-.03-.5,2.73-1.33,5.46-2.45,8.21l-1.05-2.1c-.53-1.06-.83-2.17-.95-3.25-.13-1.1-.09-2.18.1-3.17.2-.98.5-1.95.97-2.73.44-.84,1.06-1.5,1.79-2.09Z"/>
          </g>
          <g>
            <path class="cls-3" d="M198.64,199.08l2.31,1.56c-.66,1.03-1.42,1.99-2.14,2.99-1.68,2.18-3.99,3.51-6.18,3.81-2.2.31-4.24-.36-5.68-1.89l-1.43-1.5c1.38-.11,2.74-.31,4.15-.52,1.36-.26,2.81-.52,4.2-.9.09-.02.09-.17,0-.15-2.8.41-5.59.56-8.27.52l1.6-1.63c1.54-1.69,3.51-2.74,5.53-3.2,2.04-.43,4.17-.24,5.9.92Z"/>
            <path class="cls-3" d="M180.05,189.66c.45-.62.92-1.23,1.35-1.87l2.3,1.58c1.74,1.18,2.84,2.89,3.12,4.81.15.97.04,1.94-.25,2.92-.31.96-.84,1.88-1.59,2.67l-1.52,1.54c-.03-1.32-.11-2.62-.23-3.88-.15-1.29-.31-2.51-.55-3.75-.02-.08-.14-.08-.13,0,.17,2.45.15,5.01-.13,7.6l-1.42-1.51c-1.42-1.53-2.11-3.44-2.28-5.26-.13-1.8.24-3.53,1.31-4.87Z"/>
          </g>
          <g>
            <path class="cls-3" d="M204.53,185.03l2.28.8c-.35.98-.69,1.96-1.1,2.91-.22.54-.48,1.05-.78,1.52-.3.47-.65.89-1.01,1.27-.72.77-1.55,1.35-2.43,1.72-1.73.76-3.59.69-5.16-.23l-1.55-.9c2.22-.85,4.41-1.9,6.6-3.12.07-.04.04-.16-.03-.12-1.14.47-2.27.91-3.38,1.3-1.14.38-2.27.73-3.38,1.04l.93-1.74c.46-.88,1-1.67,1.69-2.31.65-.66,1.39-1.21,2.2-1.61,1.6-.81,3.41-1.12,5.13-.52Z"/>
            <path class="cls-3" d="M186.65,181.24l.4-.96.35-.97,2.28.81c1.69.6,3.05,1.81,3.68,3.36.66,1.54.63,3.43-.25,5.11-.3.55-.58,1.11-.89,1.65-.34-1.09-.73-2.16-1.12-3.19-.4-1.03-.86-2.05-1.32-3.02-.03-.06-.13-.03-.11.04.7,2.03,1.28,4.19,1.68,6.42l-1.55-.91c-1.56-.92-2.59-2.35-3.15-3.85-.27-.75-.4-1.51-.42-2.27,0-.76.15-1.49.43-2.22Z"/>
          </g>
          <g>
            <path class="cls-3" d="M206.6,170.2l2.04.16-.26,2.56c-.25,1.91-1.15,3.54-2.4,4.54-1.21,1.01-2.76,1.38-4.24,1.01l-1.48-.36c.82-.61,1.57-1.25,2.35-1.93.79-.67,1.54-1.38,2.28-2.11.05-.05,0-.14-.06-.09-1.59,1.27-3.28,2.42-4.94,3.45.13-.54.23-1.09.34-1.63.18-.82.46-1.58.84-2.27.39-.68.89-1.29,1.44-1.8,1.11-1.01,2.56-1.64,4.09-1.53Z"/>
            <path class="cls-3" d="M190.92,171.02l.18-1.8,2.04.17c1.52.12,2.84.83,3.74,1.96.46.57.74,1.22.92,1.95.19.73.2,1.51.03,2.29-.11.52-.19,1.04-.34,1.55-.51-.8-1.1-1.59-1.66-2.34-.55-.75-1.15-1.48-1.76-2.18-.04-.05-.11,0-.08.06.53.76,1.02,1.55,1.49,2.36.49.81.95,1.65,1.37,2.51l-1.47-.37c-1.5-.38-2.65-1.29-3.46-2.4-.4-.56-.69-1.16-.85-1.79-.19-.64-.25-1.29-.14-1.96Z"/>
          </g>
        </g>
      </g>
    </g>
    <path class="cls-3" d="M260.58,50.44l-3.34-1.48c-10.19-4.5-20-8.35-29.51-11.61l3.99-16.17-1.68-.52C168.33,1.65,105.77,1.71,44.08,20.84l-1.67.52,4,16.16c-9.37,3.22-19.02,7.02-29.04,11.45l-3.34,1.48,3.16,1.83c7.8,4.53,15.43,9.51,22.71,14.82-2.82,9.85-5.32,19.49-7.64,29.4l-.85,3.61,3.4-1.49c6.37-2.8,12.47-5.28,18.37-7.47v72.82c0,3.06.17,6.13.5,9.15.77,7.16,2.47,14.22,5.05,20.95,8.05,20.95,24.49,38.08,45.1,47,10.54,4.56,21.75,6.88,33.33,6.88,10.66,0,21.04-1.97,30.84-5.85l.34-.13c21.34-8.54,38.44-25.69,46.88-47.03.16-.37.31-.75.46-1.14,3.62-9.5,5.46-19.53,5.46-29.82l.17-72.89c5.88,2.2,12.01,4.7,18.46,7.53l3.4,1.49-.85-3.61c-2.3-9.91-4.81-19.54-7.64-29.4,7.28-5.31,14.91-10.3,22.71-14.82l3.16-1.83ZM227.27,23.72l-3.08,12.45-.88,3.61-2.31,9.36-3.32,13.47-1.33,5.37c-8.28-2.47-16.52-4.56-24.74-6.26-1.22-.25-2.43-.49-3.64-.72-33.91-6.56-67.42-6.56-101.31,0-1.22.24-2.43.48-3.64.74-8.36,1.73-16.75,3.86-25.17,6.39l-.93-3.74-3.72-14.98-2.35-9.47-.9-3.61-3.08-12.45c59.86-18.22,120.54-18.28,180.41-.16ZM53.19,87.19c-5.31,1.95-10.78,4.13-16.46,6.55,2.16-9.01,4.49-17.84,7.1-26.86l.36-1.25-1.04-.76c-6.73-4.96-13.76-9.65-20.95-13.96,8.63-3.72,16.97-6.97,25.11-9.78l5.88,23.71,1.98,7.98,1.74-.54.14-.05c8.88-2.73,17.72-5.02,26.54-6.84l1.91,12.23c-9.32,2.04-18.71,4.73-28.59,8.21-1.23.43-2.47.87-3.72,1.34ZM217.45,163.97c0,9.84-1.76,19.43-5.22,28.51-.13.34-.26.68-.42,1.05-8.04,20.32-24.24,36.65-44.49,44.85l-.33.13c-9.47,3.8-19.49,5.72-29.8,5.72-11.07,0-21.78-2.21-31.85-6.58-19.7-8.51-35.41-24.88-43.11-44.92-2.47-6.43-4.1-13.17-4.83-20.02-.33-2.88-.48-5.83-.48-8.74v-74.18c10.8-3.86,20.97-6.76,31.08-8.88l1.73-.36-2.49-15.88c33.5-6.5,66.64-6.5,100.16,0l-2.49,15.89,1.74.35c9.9,2.02,20.03,4.89,30.98,8.82l-.17,74.24ZM231.46,64.87l-1.04.76.36,1.25c2.61,9.03,4.94,17.85,7.1,26.85-5.74-2.45-11.23-4.66-16.54-6.62-1.25-.46-2.49-.9-3.72-1.34-10.01-3.53-19.36-6.2-28.51-8.15l1.91-12.23c8.67,1.8,17.37,4.03,26.11,6.71l.51.16,1.37.42,2.38-9.63,5.45-22.09c8.28,2.85,16.78,6.15,25.57,9.94-7.19,4.31-14.23,8.99-20.95,13.96Z"/>
    <g>
      <path class="cls-1" d="M82.12,35.78c3.99,4.02,5.94,6.07,9.73,10.23-2.47.43-3.71.66-6.17,1.15-2.53-2.84-3.82-4.24-6.44-7.02-.69,1.04-1.03,1.56-1.71,2.6.4,2.38.6,3.57,1.01,5.94-1.96.44-2.94.68-4.89,1.16-1.41-7.67-2.11-11.5-3.52-19.17,2.04-.5,3.06-.75,5.1-1.21.5,2.94.75,4.41,1.24,7.35,2.12-3.53,3.21-5.29,5.45-8.78,2.59-.52,3.89-.77,6.48-1.23-2.58,3.57-3.84,5.36-6.28,8.99Z"/>
      <path class="cls-1" d="M110.85,40.95c-1.56,2.1-3.74,3.3-6.57,3.66-2.92.37-5.33-.24-7.29-1.86-1.96-1.62-3.14-3.92-3.51-6.92-.36-2.93.26-5.5,1.88-7.72,1.63-2.21,3.95-3.53,6.94-3.91,3.01-.38,5.5.29,7.43,1.97,1.93,1.68,2.98,4.1,3.19,7.22.2,2.95-.51,5.46-2.07,7.56ZM106.09,29.53c-.89-.97-2.05-1.37-3.45-1.19-1.4.18-2.46.87-3.17,2.07-.71,1.2-.96,2.72-.76,4.56.2,1.89.76,3.32,1.66,4.29.9.97,2.04,1.36,3.44,1.18,1.38-.17,2.39-.84,3.07-2,.67-1.17.93-2.72.77-4.68-.15-1.84-.67-3.25-1.56-4.22Z"/>
      <path class="cls-1" d="M117.98,23.14c3.56-.25,5.34-.34,8.91-.48,2.49-.09,4.46.39,5.89,1.41,1.43,1.02,2.14,2.7,2.16,5.01.01,2.13-.61,3.74-1.85,4.84-1.24,1.1-2.9,1.68-5.01,1.75-1.73.06-2.59.1-4.31.18.1,2.62.15,3.93.25,6.55-2.01.1-3.01.16-5.02.3-.41-7.83-.61-11.74-1.02-19.56ZM126.53,31.76c.54-.02.97-.06,1.3-.12.33-.06.68-.17,1.04-.32.36-.16.62-.41.79-.75.17-.34.25-.79.24-1.34-.02-.9-.29-1.53-.83-1.89-.53-.36-1.29-.52-2.26-.49-1.35.05-2.03.08-3.38.15.07,1.96.11,2.94.18,4.89,1.17-.06,1.75-.09,2.92-.13Z"/>
      <path class="cls-1" d="M148.03,41.33c-.98.81-2.28,1.19-3.92,1.15-.86-.02-1.82-.19-2.88-.5.02-1.7.03-2.54.05-4.24.71.27,1.48.41,2.32.43.53.01.96-.1,1.29-.35.33-.25.5-.56.51-.95,0-.4-.22-1.09-.7-2.06-2.42-4.97-3.68-7.44-6.27-12.35,2.4,0,3.61.03,6.01.09,1.67,3.9,2.48,5.85,4.06,9.77,1.68-3.79,2.54-5.67,4.31-9.43,2.37.13,3.55.21,5.92.39-3.18,5.53-4.72,8.31-7.69,13.93-1.02,1.93-2.02,3.3-3,4.12Z"/>
      <path class="cls-1" d="M178.35,45.26c-2.01-.31-3.01-.46-5.02-.74.33-3.22.49-4.82.82-8.04-2.65-.36-3.97-.53-6.62-.83-.27,3.22-.4,4.83-.67,8.06-2.01-.23-3.02-.33-5.03-.52.54-7.81.81-11.72,1.36-19.54,2.13.2,3.19.31,5.31.55-.23,2.78-.35,4.18-.58,6.96,2.68.3,4.03.47,6.71.84.28-2.78.43-4.17.71-6.94,2.12.29,3.18.45,5.29.78-.91,7.77-1.36,11.65-2.27,19.42Z"/>
      <path class="cls-1" d="M197.7,53.95c.33-1.89.5-2.83.83-4.72-4.4-1.04-6.61-1.51-11.03-2.37-.27,1.9-.41,2.85-.68,4.75-1.83-.35-2.75-.52-4.59-.84.47-3.63.71-5.44,1.18-9.07.8.14,1.2.21,2,.36.95-1.11,1.85-2.9,2.7-5.38s1.45-4.78,1.75-6.92c.13-.9.19-1.35.32-2.25,5.74,1.1,8.6,1.73,14.3,3.14-1.1,5.97-1.64,8.95-2.74,14.92.88.22,1.32.33,2.2.55-.68,3.58-1.02,5.37-1.7,8.95-1.82-.46-2.73-.69-4.56-1.12ZM198.7,33.55c-1.69-.38-2.53-.57-4.22-.92-.05.35-.08.52-.14.87-.27,1.73-.75,3.49-1.42,5.27-.67,1.78-1.4,3.22-2.18,4.33,2.45.5,3.68.76,6.12,1.32.73-4.34,1.1-6.52,1.84-10.86Z"/>
    </g>
  </g>
</svg>